HIERARCHY
ROOT Hips
{
	OFFSET 0.000000 0.000000 0.000000
	CHANNELS 6 Xposition Yposition Zposition Xrotation Yrotation Zrotation
	JOINT Spine
	{
		OFFSET 0.000000 0.053497 0.080245
		CHANNELS 3 Xrotation Yrotation Zrotation
		JOINT Spine1
		{
			OFFSET 0.000000 0.018579 0.105368
			CHANNELS 3 Xrotation Yrotation Zrotation
			JOINT Spine2
			{
				OFFSET 0.000000 0.009325 0.106586
				CHANNELS 3 Xrotation Yrotation Zrotation
				JOINT Spine3
				{
					OFFSET 0.000000 0.000000 0.106993
					CHANNELS 3 Xrotation Yrotation Zrotation
					JOINT Neck
					{
						OFFSET 0.000000 -0.040122 0.280858
						CHANNELS 3 Xrotation Yrotation Zrotation
						JOINT Head
						{
							OFFSET 0.000000 -0.025546 0.144881
							CHANNELS 3 Xrotation Yrotation Zrotation
							End Site
							{
								OFFSET 0.000000 0.000000 0.000000
							}
						}
					}
					JOINT RightShoulder
					{
						OFFSET -0.032541 -0.054234 0.175720
						CHANNELS 3 Xrotation Yrotation Zrotation
						JOINT RightArm
						{
							OFFSET -0.161619 0.000000 0.000000
							CHANNELS 3 Xrotation Yrotation Zrotation
							JOINT RightForeArm
							{
								OFFSET -0.257104 0.000000 0.000000
								CHANNELS 3 Xrotation Yrotation Zrotation
								JOINT RightHand
								{
									OFFSET -0.273485 0.000000 0.000000
									CHANNELS 3 Xrotation Yrotation Zrotation
									JOINT RightHandEnd
									{
										OFFSET -0.070844 0.000000 0.000000
										CHANNELS 3 Xrotation Yrotation Zrotation
										End Site
										{
											OFFSET 0.000000 0.000000 0.000000
										}
									}
									JOINT RightHandThumb1
									{
										OFFSET -0.028338 -0.047230 -0.018892
										CHANNELS 3 Xrotation Yrotation Zrotation
										End Site
										{
											OFFSET 0.000000 0.000000 0.000000
										}
									}
								}
							}
						}
					}
					JOINT LeftShoulder
					{
						OFFSET 0.032541 -0.054234 0.175720
						CHANNELS 3 Xrotation Yrotation Zrotation
						JOINT LeftArm
						{
							OFFSET 0.161619 0.000000 0.000000
							CHANNELS 3 Xrotation Yrotation Zrotation
							JOINT LeftForeArm
							{
								OFFSET 0.257104 0.000000 0.000000
								CHANNELS 3 Xrotation Yrotation Zrotation
								JOINT LeftHand
								{
									OFFSET 0.273485 0.000000 0.000000
									CHANNELS 3 Xrotation Yrotation Zrotation
									JOINT LeftHandEnd
									{
										OFFSET 0.070844 0.000000 0.000000
										CHANNELS 3 Xrotation Yrotation Zrotation
										End Site
										{
											OFFSET 0.000000 0.000000 0.000000
										}
									}
									JOINT LeftHandThumb1
									{
										OFFSET 0.028338 -0.047230 -0.018892
										CHANNELS 3 Xrotation Yrotation Zrotation
										End Site
										{
											OFFSET 0.000000 0.000000 0.000000
										}
									}
								}
							}
						}
					}
				}
			}
		}
	}
	JOINT RightUpLeg
	{
		OFFSET -0.096537 0.000000 -0.028202
		CHANNELS 3 Xrotation Yrotation Zrotation
		JOINT RightLeg
		{
			OFFSET 0.000000 0.000000 -0.431842
			CHANNELS 3 Xrotation Yrotation Zrotation
			JOINT RightFoot
			{
				OFFSET 0.000000 0.000000 -0.456398
				CHANNELS 3 Xrotation Yrotation Zrotation
				JOINT RightToeBase
				{
					OFFSET 0.000000 -0.128905 -0.046918
					CHANNELS 3 Xrotation Yrotation Zrotation
					End Site
					{
						OFFSET 0.000000 0.000000 0.000000
					}
				}
			}
		}
	}
	JOINT LeftUpLeg
	{
		OFFSET 0.096537 0.000000 -0.028202
		CHANNELS 3 Xrotation Yrotation Zrotation
		JOINT LeftLeg
		{
			OFFSET 0.000000 0.000000 -0.431842
			CHANNELS 3 Xrotation Yrotation Zrotation
			JOINT LeftFoot
			{
				OFFSET 0.000000 0.000000 -0.456398
				CHANNELS 3 Xrotation Yrotation Zrotation
				JOINT LeftToeBase
				{
					OFFSET 0.000000 -0.128905 -0.046918
					CHANNELS 3 Xrotation Yrotation Zrotation
					End Site
					{
						OFFSET 0.000000 0.000000 0.000000
					}
				}
			}
		}
	}
}
MOTION
Frames: 14
Frame Time: 0.033333
-0.107881 -2.550925 0.931720 0.888500 3.212000 175.875900 8.820400 4.116000 -1.092600 3.925600 0.516000 0.432900 5.334800 0.083400 5.237500 2.352700 -1.562300 1.956300 12.357100 3.002900 17.810100 -3.569400 6.244000 19.868700 -1.405200 -0.971600 9.522200 -1.405300 -42.511500 5.967200 0.000000 0.000100 50.007400 -46.192500 -7.735800 -11.535200 0.000000 0.000000 0.000000 0.000000 0.000000 0.000000 -1.377200 12.787300 -17.218100 -1.379700 41.156700 -21.216600 0.000000 0.000000 -40.670400 -37.934900 5.066000 9.574600 0.000000 0.000000 0.000000 0.000000 0.000000 0.000000 -28.906500 8.004700 -4.131700 37.531100 0.000000 0.000000 -7.349100 1.387300 -20.674300 -15.962200 0.000000 0.000000 -17.380000 6.520700 4.753400 27.675500 0.000000 0.000000 -16.658000 13.731400 15.991200 14.312300 0.000000 0.000000 
-0.115682 -2.568788 0.933148 1.517400 2.461700 176.130500 8.971000 3.417600 -0.902400 4.014700 0.304900 0.365800 5.749900 -0.118100 4.550100 2.407600 -1.452200 1.688900 12.564600 3.093200 17.667500 -3.537600 6.284700 19.659800 -1.725200 -1.212900 9.795700 -0.960200 -42.117400 6.775300 0.000000 0.000100 49.440200 -45.874000 -7.806300 -11.503000 0.000000 0.000000 0.000000 0.000000 0.000000 0.000000 -1.329400 13.098300 -17.026200 -1.905200 41.334400 -20.477300 0.000000 0.000000 -40.513700 -37.961600 5.055100 9.549400 0.000000 0.000000 0.000000 0.000000 0.000000 0.000000 -26.912400 7.345800 -5.067500 43.256800 0.000000 0.000000 -9.393100 1.855000 -22.700900 -15.449500 0.000000 0.000000 -17.211400 6.274200 4.576600 26.440300 0.000000 0.000000 -15.019100 13.453000 15.699500 14.159800 0.000000 0.000000 
-0.123414 -2.585715 0.933955 2.082400 2.371000 176.099000 8.956500 3.203100 -0.772000 4.039000 0.196500 0.321400 6.102400 -0.093500 4.230200 2.454600 -1.342800 1.474500 12.691500 3.193000 17.474200 -3.507500 6.302400 19.431100 -1.989400 -1.444000 9.996700 -0.612100 -41.842400 7.268200 0.000000 0.000000 48.925300 -45.555500 -7.853500 -11.482200 0.000000 0.000000 0.000000 0.000000 0.000000 0.000000 -1.256200 13.436600 -16.803400 -2.323400 41.594200 -19.882000 0.000000 0.000000 -40.499400 -37.657000 4.965300 9.582800 0.000000 0.000000 0.000000 0.000000 0.000000 0.000000 -24.518400 7.177100 -6.011400 48.213700 0.000000 0.000000 -11.345300 1.415500 -24.388600 -14.882800 0.000000 0.000000 -16.908700 6.568700 4.884700 24.823000 0.000000 0.000000 -13.186200 13.314200 15.228800 13.946500 0.000000 0.000000 
-0.130089 -2.602403 0.934060 2.541200 2.772900 175.480000 8.803200 3.338700 -0.613800 4.006500 0.334400 0.348900 6.387600 0.142400 4.347900 2.475700 -1.309600 1.452200 12.690600 3.307400 17.310800 -3.421800 6.296500 19.235300 -2.160700 -1.669400 10.110300 -0.421100 -41.635600 7.414700 0.000000 0.000000 48.535700 -45.286600 -7.940200 -11.476600 0.000000 0.000000 0.000000 0.000000 0.000000 0.000000 -1.178800 13.740400 -16.606300 -2.422100 41.767300 -19.538000 0.000000 0.000000 -40.654200 -37.333400 4.874100 9.605800 0.000000 0.000000 0.000000 0.000000 0.000000 0.000000 -21.808700 7.132700 -6.445400 52.105800 0.000000 0.000000 -12.929000 -0.163200 -24.652200 -14.932200 0.000000 0.000000 -16.634200 7.103900 6.067400 22.979000 0.000000 0.000000 -11.229400 13.133100 14.707500 13.745100 0.000000 0.000000 
-0.135771 -2.619685 0.933013 2.707000 3.183300 174.904300 8.520300 3.399500 -0.389900 3.877300 0.543100 0.381800 6.539200 0.425100 4.559200 2.474600 -1.300300 1.467500 12.612300 3.396000 17.214600 -3.366500 6.310300 19.139600 -2.221400 -1.845200 10.115500 -0.287100 -41.455000 7.314100 0.000000 0.000000 48.331100 -45.175000 -8.087900 -11.493100 0.000000 0.000000 0.000000 0.000000 0.000000 0.000000 -1.117700 13.923600 -16.471200 -2.117100 41.835500 -19.474900 0.000000 0.000000 -40.943400 -37.211700 4.881700 9.589800 0.000000 0.000000 0.000000 0.000000 0.000000 0.000000 -18.892700 6.901400 -6.798600 54.771200 0.000000 0.000000 -14.433800 -2.860200 -22.468100 -14.928100 0.000000 0.000000 -16.805900 7.526800 7.528500 21.323400 0.000000 0.000000 -9.525100 12.993500 14.158800 13.498100 0.000000 0.000000 
-0.141699 -2.638311 0.930702 2.397300 3.282000 174.958600 8.096200 3.096400 -0.142900 3.627000 0.610100 0.380000 6.507200 0.588000 4.433200 2.476400 -1.229900 1.348100 12.524900 3.501700 17.234200 -3.365100 6.374800 19.144600 -2.168300 -1.889200 10.102800 -0.179000 -41.306100 7.160700 0.000000 0.000000 48.251400 -45.160300 -8.216300 -11.527000 0.000000 0.000000 0.000000 0.000000 0.000000 0.000000 -1.062800 14.058100 -16.302200 -1.582000 41.853500 -19.614700 0.000000 0.000000 -41.278700 -37.275300 4.922500 9.578300 0.000000 0.000000 0.000000 0.000000 0.000000 0.000000 -15.989700 6.295800 -7.523800 56.102800 0.000000 0.000000 -15.817100 -7.799500 -17.776600 -14.083700 0.000000 0.000000 -17.819400 7.768400 8.182200 20.248600 0.000000 0.000000 -8.193500 13.129700 13.883300 13.065600 0.000000 0.000000 
-0.148280 -2.658547 0.927468 1.573400 3.069300 175.453900 7.418200 2.476100 0.104600 3.275900 0.511500 0.335000 6.388600 0.655000 4.032600 2.489900 -1.082400 1.068800 12.438600 3.625400 17.364600 -3.309500 6.474500 19.174300 -2.070000 -1.848100 10.182200 -0.130600 -41.175200 7.080100 0.000000 0.000000 48.202400 -45.105400 -8.294600 -11.568600 0.000000 0.000000 0.000000 0.000000 0.000000 0.000000 -1.043800 14.253300 -16.068200 -1.117800 41.824500 -19.713800 0.000000 0.000000 -41.600400 -37.364600 4.898500 9.631900 0.000000 0.000000 0.000000 0.000000 0.000000 0.000000 -13.356100 5.157600 -8.368400 55.666500 0.000000 0.000000 -15.403600 -15.042200 -11.389900 -13.588300 0.000000 0.000000 -19.779900 7.896200 7.708800 19.838800 0.000000 0.000000 -7.020700 13.509800 14.251900 12.519800 0.000000 0.000000 
-0.154252 -2.679624 0.923872 0.741400 2.641600 175.732600 6.751900 1.753600 0.360800 2.927900 0.403400 0.292400 6.300000 0.717500 3.717800 2.516200 -0.956600 0.819500 12.372900 3.706700 17.535600 -3.181500 6.570300 19.157100 -2.026300 -1.841900 10.372100 0.034400 -40.915300 7.178600 0.000000 0.000000 48.164000 -45.133400 -8.347800 -11.625200 0.000000 0.000000 0.000000 0.000000 0.000000 0.000000 -1.084000 14.524300 -15.891200 -0.883500 41.658800 -19.618900 0.000000 0.000000 -41.851300 -37.434600 4.841000 9.705600 0.000000 0.000000 0.000000 0.000000 0.000000 0.000000 -10.692700 3.304400 -8.810300 52.820600 0.000000 0.000000 -13.042400 -19.592000 -5.140800 -14.744300 0.000000 0.000000 -21.952500 7.774700 7.042900 19.756900 0.000000 0.000000 -5.945400 13.895900 14.948800 12.018600 0.000000 0.000000 
-0.158801 -2.701686 0.919937 0.049000 2.075300 175.549300 6.199300 1.068600 0.617700 2.635700 0.343500 0.278500 6.268600 0.778900 3.630200 2.559700 -0.911000 0.707700 12.342000 3.715800 17.704600 -3.087300 6.640000 19.112800 -2.145100 -1.939600 10.684900 0.628200 -40.315500 7.589800 0.000000 0.000000 48.115400 -45.554300 -8.389400 -11.689600 0.000000 0.000000 0.000000 0.000000 0.000000 0.000000 -1.195800 14.818200 -15.859300 -0.875100 41.283400 -19.363000 0.000000 0.000000 -41.982500 -37.632500 4.872300 9.699400 0.000000 0.000000 0.000000 0.000000 0.000000 0.000000 -8.249800 0.822500 -8.891300 47.949300 0.000000 0.000000 -13.410800 -16.417100 -2.639100 -16.569600 0.000000 0.000000 -24.032800 7.234300 6.978500 19.686500 0.000000 0.000000 -5.089700 14.475800 15.438000 11.149700 0.000000 0.000000 
-0.162811 -2.725341 0.915695 -0.591200 1.273100 175.317100 5.789200 0.319000 0.851600 2.433800 0.215100 0.259100 6.213900 0.728400 3.485100 2.624700 -0.885300 0.618400 12.350400 3.708500 17.858100 -3.115400 6.637500 19.080400 -2.407000 -2.026900 11.212500 1.549400 -39.426200 8.258700 0.000000 0.000000 47.975600 -46.404500 -8.405100 -11.736300 0.000000 0.000000 0.000000 0.000000 0.000000 0.000000 -1.279800 15.022000 -15.884900 -1.134900 40.821800 -19.115800 0.000000 0.000000 -41.970600 -38.020400 4.997200 9.634700 0.000000 0.000000 0.000000 0.000000 0.000000 0.000000 -6.433500 -1.867200 -9.529200 42.083100 0.000000 0.000000 -17.965200 -7.326200 -4.865900 -15.829000 0.000000 0.000000 -26.058500 6.350300 7.053300 19.527000 0.000000 0.000000 -4.529300 15.934900 15.793800 8.985400 0.000000 0.000000 
-0.167531 -2.750548 0.911835 -1.127400 0.146900 175.386400 5.607600 -0.635500 1.077800 2.366700 -0.068700 0.195900 6.113700 0.516100 3.060500 2.701400 -0.802700 0.421200 12.383200 3.711700 17.919600 -3.188000 6.525900 18.988100 -2.665400 -1.978800 11.974700 2.226100 -38.525700 8.923900 0.000000 0.000000 47.658500 -47.340600 -8.413500 -11.748200 0.000000 0.000000 0.000000 0.000000 0.000000 0.000000 -1.289700 15.069600 -15.891400 -1.644500 40.404900 -19.001900 0.000000 0.000000 -41.851400 -38.424200 5.113000 9.650800 0.000000 0.000000 0.000000 0.000000 0.000000 0.000000 -5.539500 -4.207800 -11.491300 36.616900 0.000000 0.000000 -22.431000 0.761700 -8.475700 -10.555700 0.000000 0.000000 -27.844100 5.377300 6.491200 19.159200 0.000000 0.000000 -4.574200 18.267100 16.522900 5.439500 0.000000 0.000000 
-0.172819 -2.777066 0.909081 -1.584300 -1.253800 175.490300 5.616300 -1.798900 1.320300 2.421600 -0.457500 0.125900 6.015000 0.253700 2.606400 2.770200 -0.689600 0.202800 12.456600 3.700500 17.780900 -3.213300 6.327300 18.720900 -2.858600 -1.846300 12.779000 2.308800 -37.763300 9.414800 0.000000 0.000000 47.185200 -48.051100 -8.455200 -11.745500 0.000000 0.000000 0.000000 0.000000 0.000000 0.000000 -1.361000 15.034200 -15.976200 -2.082200 39.901800 -19.078400 0.000000 0.000000 -41.677300 -38.781400 5.134100 9.731900 0.000000 0.000000 0.000000 0.000000 0.000000 0.000000 -5.825400 -6.061700 -13.914800 33.021200 0.000000 0.000000 -24.693900 4.341800 -10.483600 -4.909800 0.000000 0.000000 -29.270100 4.300800 5.584000 18.430700 0.000000 0.000000 -6.016400 20.109100 17.521000 1.892100 0.000000 0.000000 
-0.178138 -2.804251 0.907265 -1.968800 -2.565300 175.128800 5.855400 -2.798600 1.578500 2.542900 -0.837700 0.081300 5.848400 0.020200 2.488800 2.827600 -0.621700 0.111000 12.661300 3.697500 17.517200 -3.308600 6.068700 18.358500 -3.028300 -1.668900 13.451100 2.067600 -37.122600 9.861100 0.000000 0.000000 46.670800 -48.570200 -8.519400 -11.770800 0.000000 0.000000 0.000000 0.000000 0.000000 0.000000 -1.578000 14.868000 -16.115100 -2.193400 39.367200 -19.387600 0.000000 0.000000 -41.434500 -39.259500 5.064900 9.646100 0.000000 0.000000 0.000000 0.000000 0.000000 0.000000 -7.212600 -7.504200 -14.697200 31.695800 0.000000 0.000000 -25.091100 5.716300 -10.880600 -2.438300 0.000000 0.000000 -30.231800 3.142600 5.386900 17.123700 0.000000 0.000000 -8.957700 20.473600 17.802000 -0.050300 0.000000 0.000000 
-0.182885 -2.831666 0.905782 -2.641000 -3.771400 174.424400 6.058900 -3.547000 1.801200 2.622100 -1.183300 0.048700 5.524800 -0.269600 2.543800 2.880900 -0.631100 0.174700 13.034100 3.741800 17.339800 -3.568200 5.743300 18.153700 -3.205600 -1.453000 13.997000 1.917400 -36.617600 10.474600 0.000000 0.000000 46.168400 -49.047100 -8.557000 -11.823100 0.000000 0.000000 0.000000 0.000000 0.000000 0.000000 -1.799700 14.446200 -16.164200 -2.303900 39.123900 -19.744800 0.000000 0.000000 -41.095600 -39.892300 4.955500 9.319700 0.000000 0.000000 0.000000 0.000000 0.000000 0.000000 -9.809300 -9.031300 -13.379400 31.984500 0.000000 0.000000 -24.258900 7.413100 -11.508900 -2.291700 0.000000 0.000000 -31.308500 1.837200 5.882200 15.677800 0.000000 0.000000 -11.851100 20.698700 16.500000 -0.121100 0.000000 0.000000 
